<?xml version="1.0" encoding="iso-8859-1"?>
<!-- Generator: Adobe Illustrator 19.0.0, SVG Export Plug-In . SVG Version: 6.00 Build 0)  -->
<svg version="1.1" id="Layer_1" xmlns="http://www.w3.org/2000/svg" xmlns:xlink="http://www.w3.org/1999/xlink" x="0px" y="0px"
	 viewBox="0 0 512.001 512.001" style="enable-background:new 0 0 512.001 512.001;" xml:space="preserve">
<polyline style="fill:#666666;" points="143.697,79.191 143.697,46.972 20.875,46.972 20.875,200.138 143.697,200.138 "/>
<path style="fill:#F95428;" d="M217.803,456.114H51.454c-14.719,0-26.649-11.932-26.649-26.649l0,0
	c0-8.639,7.003-15.642,15.642-15.642h177.356"/>
<path style="fill:#E6E6E6;" d="M390.768,402.066v101.033H148.147V402.066c0-27.011,15.559-50.394,38.196-61.657
	c9.226-4.596,19.621-7.178,30.628-7.178h104.961c11.007,0,21.402,2.582,30.628,7.178
	C375.209,351.672,390.768,375.055,390.768,402.066z"/>
<path style="fill:#F7CBA4;" d="M352.561,340.409l-83.103,81.623l-83.114-81.623c9.226-4.596,19.621-7.178,30.628-7.178h104.961
	C332.94,333.231,343.335,335.813,352.561,340.409z"/>
<path style="fill:#CCCCCC;" d="M259.386,333.231h-42.41c-38.014,0-68.831,30.816-68.831,68.831v101.034h42.41V402.062
	C190.555,364.048,221.371,333.231,259.386,333.231z"/>
<path style="fill:#F7CBA4;" d="M231.889,351.389l-45.685-33.192c-24.142-17.54-37.202-46.545-34.332-76.249l7.924-81.999
	c5.458-56.476,52.917-99.57,109.656-99.57l0,0c56.739,0,104.198,43.094,109.656,99.57l7.924,81.999
	c2.87,29.703-10.189,58.708-34.332,76.249l-45.685,33.192C284.617,367.662,254.287,367.662,231.889,351.389z"/>
<path style="fill:#E0B394;" d="M180.302,258.107c-0.768,12.988,3.461,25.765,11.831,35.725l47.748,58.674
	c2.493,2.972,5.32,5.465,8.38,7.457c-5.743-2.003-11.263-4.875-16.371-8.581l-45.686-33.188
	c-24.14-17.54-37.194-46.543-34.323-76.247l7.913-82.001c5.409-55.925,51.997-98.729,108.011-99.541
	c-34.501,0.835-73.569,33.355-75.605,67.989L180.302,258.107z"/>
<path style="fill:#EA8249;" d="M450.132,255.225c0,0-8.169,94.466-97.427,62.97c24.14-17.54,37.194-46.543,34.323-76.247
	l-7.924-82.001c-43.928,19.499-76.259-21.713-76.259-21.713s-37.072,53.688-115.946,61.178c-9.683,0.924-20,1.146-30.962,0.49
	l-4.062,42.047c-2.871,29.704,10.183,58.708,34.334,76.247c-89.258,31.496-97.427-62.97-97.427-62.97
	c1.091,4.218,3.55,7.802,6.811,10.328c3.272,2.538,7.357,4.007,11.719,4.007c9.894,0,18.152-7.546,19.054-17.395l8.269-90.259
	c3.194-34.846,19.41-65.608,43.56-87.655c0.289-0.267,0.579-0.523,0.868-0.768c0.801,2.037,6.744,3.706,16.015,5.03
	c43.616,6.21,160.976,4.53,164.771-5.03c24.641,22.081,41.201,53.165,44.429,88.423l8.269,90.259
	c0.456,4.93,2.738,9.271,6.155,12.387c3.417,3.116,7.946,5.008,12.899,5.008C440.327,269.56,447.94,263.661,450.132,255.225z"/>
<path style="fill:#D36F3D;" d="M186.9,199.411c-9.683,0.924-20,1.146-30.962,0.49l-4.062,42.047
	c-2.871,29.704,10.183,58.708,34.334,76.247c-89.258,31.496-97.427-62.97-97.427-62.97c1.091,4.218,3.55,7.802,6.811,10.328
	c3.272,2.538,7.357,4.007,11.719,4.007c9.894,0,18.152-7.546,19.054-17.395l8.269-90.259c3.194-34.846,19.41-65.608,43.56-87.655
	c0.289-0.267,0.579-0.523,0.868-0.768c0.801,2.037,6.744,3.706,16.015,5.03l22.426,21.747
	C217.506,100.259,167.212,134.148,186.9,199.411z"/>
<path style="fill:#E6E6E6;" d="M377.647,28.508c-5.932,14.991-11.864,29.983-17.796,44.974c-4.596,11.597-9.182,23.194-13.778,34.79
	c-39.465-15.626-82.513-18.72-123.392-9.282c-10.105,2.315-20.077,5.42-29.838,9.282c-4.596-11.597-9.182-23.194-13.778-34.79
	c-5.932-14.991-11.875-29.983-17.807-44.974C177.74,21.975,194.668,17,211.83,13.561C267.032,2.532,324.626,7.518,377.647,28.508z"
	/>
<path style="fill:#CCCCCC;" d="M222.681,98.991c-10.105,2.315-20.077,5.42-29.838,9.282c-4.596-11.597-9.182-23.194-13.778-34.79
	c-5.932-14.991-11.875-29.983-17.807-44.974C177.74,21.975,194.668,17,211.83,13.561L222.681,98.991z"/>
<path style="fill:#E6E6E6;" d="M335.404,330.795c-43.663,7.314-88.241,7.313-131.903,0c-2.763-26.91-4.115-53.781-4.066-80.497
	c46.109,10.307,93.925,10.307,140.034,0C339.52,277.015,338.167,303.885,335.404,330.795z"/>
<g>
	<path style="fill:#CCCCCC;" d="M118.223,111.281c0-13.184-8.856-23.871-19.779-23.871c-2.08,0-4.084,0.387-5.966,1.106
		c-6.787,2.591-14.399,2.591-21.186,0c-1.882-0.719-3.886-1.106-5.966-1.106c-10.924,0-19.779,10.688-19.779,23.871
		c0,4.608,1.082,8.909,2.956,12.556c4.389,8.543,7.221,17.788,8.759,27.269c0.026,0.156,0.051,0.313,0.077,0.469
		c1.108,6.732,10.403,7.501,12.632,1.053c3.086-8.928,7.166-16.873,11.915-16.873s8.829,7.945,11.915,16.873
		c2.229,6.448,11.523,5.678,12.632-1.053c0.026-0.156,0.051-0.313,0.077-0.469c1.538-9.48,4.371-18.726,8.759-27.269
		C117.141,120.19,118.223,115.888,118.223,111.281z"/>
	<rect x="428.805" y="347.049" style="fill:#CCCCCC;" width="39.509" height="39.509"/>
	<path style="fill:#CCCCCC;" d="M437.922,472.808h-9.121v-86.253h24.485v70.889C453.286,465.929,446.407,472.808,437.922,472.808z"
		/>
</g>
<path d="M327.71,495.307h-49.348v-69.216l59.827-58.758c3.289-3.231,3.337-8.515,0.107-11.804s-8.515-3.338-11.804-0.107
	l-56.476,55.468l-56.476-55.468c-3.29-3.23-8.574-3.182-11.804,0.107c-3.23,3.289-3.182,8.574,0.107,11.804l59.826,58.758v69.216
	H157.053v-96.703c0-18.794,9.608-35.848,25.7-45.618c3.941-2.393,5.195-7.527,2.803-11.467c-2.392-3.941-7.526-5.196-11.467-2.803
	c-21.121,12.823-33.731,35.211-33.731,59.888v105.05c0,4.61,3.737,8.347,8.347,8.347h179.005c4.61,0,8.347-3.737,8.347-8.347
	C336.058,499.044,332.32,495.307,327.71,495.307z"/>
<path d="M365.931,338.715c-3.941-2.392-9.074-1.136-11.467,2.803c-2.392,3.941-1.136,9.075,2.804,11.467
	c16.1,9.774,25.711,26.827,25.711,45.618v96.703h-27.445c-4.61,0-8.347,3.737-8.347,8.347c0,4.61,3.737,8.347,8.347,8.347h35.792
	c4.61,0,8.347-3.737,8.347-8.347v-105.05C399.673,373.93,387.059,351.542,365.931,338.715z"/>
<path d="M220.467,206.733c-4.61,0-8.347,3.737-8.347,8.347v13.351c0,4.61,3.737,8.347,8.347,8.347c4.61,0,8.347-3.737,8.347-8.347
	V215.08C228.814,210.47,225.077,206.733,220.467,206.733z"/>
<path d="M294.57,183.024c-3.26,3.26-3.26,8.545,0,11.804c3.26,3.26,8.545,3.26,11.804,0c7.267-7.268,19.094-7.269,26.363,0
	c1.629,1.629,3.766,2.445,5.902,2.445s4.273-0.815,5.902-2.445c3.26-3.26,3.26-8.545,0-11.804
	C330.765,169.246,308.347,169.246,294.57,183.024z"/>
<path d="M319.557,206.733c-4.61,0-8.347,3.737-8.347,8.347v13.351c0,4.61,3.737,8.347,8.347,8.347c4.61,0,8.347-3.737,8.347-8.347
	V215.08C327.904,210.47,324.167,206.733,319.557,206.733z"/>
<path d="M169.768,71.819c-24.565,23.904-39.75,55.639-42.887,89.881l-8.269,90.26c-0.512,5.591-5.13,9.808-10.741,9.808
	c-2.417,0-4.701-0.78-6.608-2.258c-1.884-1.46-3.249-3.526-3.842-5.82c-1.086-4.202-5.212-6.865-9.49-6.138
	c-4.278,0.733-7.281,4.622-6.907,8.947c0.162,1.883,4.356,46.349,36.342,66.972c10.41,6.712,22.39,10.07,35.83,10.07
	c9.93,0,20.661-1.846,32.138-5.514l13.459,9.779c0.181,0.148,0.374,0.28,0.569,0.413l28.185,20.481
	c12.7,9.227,27.578,13.841,42.463,13.841c14.882,0,29.771-4.614,42.473-13.841l28.279-20.549c0.142-0.1,0.286-0.197,0.422-0.306
	l13.512-9.819c11.479,3.669,22.208,5.515,32.138,5.514c13.438,0,25.42-3.359,35.829-10.07
	c31.987-20.622,36.179-65.089,36.342-66.972c0.374-4.322-2.625-8.21-6.901-8.946c-4.271-0.735-8.402,1.928-9.493,6.127
	c-1.238,4.761-5.536,8.088-10.453,8.088c-2.691,0-5.274-1.004-7.274-2.829c-1.988-1.812-3.219-4.294-3.467-6.98l-8.269-90.259
	c-3.14-34.303-18.312-65.992-42.89-89.874L385.97,32.14c1.697-4.286-0.402-9.136-4.688-10.833
	c-71.75-28.408-150.782-28.409-222.534,0c-2.059,0.815-3.709,2.414-4.589,4.446c-0.879,2.031-0.915,4.329-0.1,6.388L169.768,71.819z
	 M379.277,243.308c2.575,26.642-9.273,52.961-30.921,68.692l-2.428,1.765c1.531-19.406,2.339-38.889,2.424-58.182l30.344-18.297
	L379.277,243.308z M208.391,261.111c40.518,7.689,82.72,7.689,123.237,0c-0.247,20.922-1.368,42.049-3.342,63.01
	c-38.704,5.84-77.848,5.84-116.553,0C209.759,303.16,208.638,282.033,208.391,261.111z M336.93,242.975
	c-19.695,4.314-39.872,6.684-60.102,7.121c0.96-1.36,1.529-3.015,1.529-4.806v-24.485c0-4.61-3.737-8.347-8.347-8.347
	s-8.347,3.737-8.347,8.347v24.485c0,1.791,0.569,3.447,1.529,4.806c-20.23-0.435-40.408-2.806-60.102-7.121l-39.987-24.111
	l0.942-9.742c1.613,0.037,3.204,0.055,4.789,0.055c47.42-0.002,82.039-16.145,103.314-30.355
	c15.133-10.109,25.638-20.511,31.737-27.384c4.091,3.859,9.853,8.605,16.991,12.742c16.696,9.675,34.302,12.278,51.504,7.724
	l4.537,46.96L336.93,242.975z M160.741,243.307l0.582-6.021l30.345,18.297c0.085,19.289,0.891,38.769,2.422,58.173l-2.338-1.699
	c-0.009-0.007-0.018-0.012-0.027-0.019l-0.053-0.039C170.018,296.271,158.166,269.95,160.741,243.307z M237.359,345.198
	l-2.061-1.498c11.556,0.992,23.134,1.496,34.711,1.496c11.581,0,23.164-0.505,34.724-1.497l-2.061,1.498
	C283.134,359.387,256.887,359.388,237.359,345.198z M396.524,163.223l8.27,90.266c0.633,6.847,3.773,13.164,8.841,17.786
	c5.083,4.635,11.661,7.187,18.524,7.187c1.555,0,3.086-0.13,4.582-0.383c-4.162,11.146-11.257,23.741-23.189,31.405
	c-11.444,7.35-25.962,9.155-43.259,5.454c18.593-19.295,28.223-46.128,25.603-73.237l-7.924-82.001
	c-0.258-2.67-1.784-5.054-4.101-6.406c-2.317-1.353-5.142-1.508-7.595-0.421c-37.316,16.565-65.153-17.784-66.304-19.236
	c-1.638-2.088-4.187-3.272-6.821-3.191c-2.652,0.081-5.107,1.417-6.614,3.6c-0.441,0.638-45.162,63.748-139.538,58.079
	c-4.495-0.278-8.377,3.057-8.81,7.529l-4.062,42.046c-2.621,27.113,7.013,53.945,25.61,73.239
	c-17.297,3.699-31.812,1.894-43.256-5.455c-11.936-7.665-19.03-20.264-23.191-31.41c1.51,0.257,3.044,0.388,4.584,0.388
	c14.298,0,26.062-10.74,27.366-24.981l8.269-90.259c2.558-27.904,14.165-53.925,32.998-74.394l9.138,23.08
	c1.298,3.278,4.44,5.276,7.763,5.276c1.023,0,2.062-0.189,3.071-0.589c47.422-18.776,99.655-18.778,147.081,0
	c2.057,0.815,4.356,0.779,6.387-0.1c2.032-0.879,3.632-2.53,4.446-4.588l9.139-23.082
	C382.36,109.257,393.965,135.258,396.524,163.223z M367.332,33.868l-25.451,64.281c-46.648-16.445-97.085-16.445-143.732,0
	l-25.452-64.281C235.774,10.974,304.257,10.974,367.332,33.868z"/>
<path style="fill:#F95428;" d="M252.765,59.771h8.904v8.904c0,4.61,3.737,8.347,8.347,8.347s8.347-3.737,8.347-8.347v-8.904h8.904
	c4.61,0,8.347-3.737,8.347-8.347s-3.737-8.347-8.347-8.347h-8.904v-8.904c0-4.61-3.737-8.347-8.347-8.347
	c-4.61,0-8.347,3.737-8.347,8.347v8.904h-8.904c-4.61,0-8.347,3.737-8.347,8.347S248.154,59.771,252.765,59.771z"/>
<path d="M303.96,438.17c0,4.61,3.737,8.347,8.347,8.347h43.405c4.61,0,8.347-3.737,8.347-8.347s-3.737-8.347-8.347-8.347h-43.405
	C307.696,429.823,303.96,433.56,303.96,438.17z"/>
<path d="M106.469,209.041c4.61,0,8.347-3.737,8.347-8.347c0-4.61-3.737-8.347-8.347-8.347h-76.69v-90.705
	c0-4.61-3.737-8.347-8.347-8.347s-8.347,3.737-8.347,8.347v99.052c0,4.61,3.737,8.347,8.347,8.347H106.469z"/>
<path d="M21.431,82.166c4.61,0,8.347-3.737,8.347-8.347V55.875h106.127v23.873c0,4.61,3.737,8.347,8.347,8.347
	c4.61,0,8.347-3.737,8.347-8.347v-32.22c0-4.61-3.737-8.347-8.347-8.347H21.431c-4.61,0-8.347,3.737-8.347,8.347v26.291
	C13.084,78.429,16.822,82.166,21.431,82.166z"/>
<path d="M123.248,128.207c2.537-4.938,3.879-10.6,3.879-16.37c0-17.765-12.617-32.218-28.125-32.218
	c-3.058,0-6.067,0.556-8.945,1.656c-4.84,1.849-10.39,1.847-15.231,0c-2.877-1.098-5.886-1.655-8.945-1.655
	c-15.509,0-28.125,14.453-28.125,32.218c0,5.772,1.341,11.432,3.879,16.37c3.803,7.403,6.476,15.745,7.945,24.799l0.078,0.481
	c1.127,6.848,6.517,11.843,13.412,12.428c0.446,0.038,0.889,0.057,1.329,0.057c6.358,0,11.891-3.915,14.015-10.062
	c1.61-4.66,3.005-7.535,4.025-9.271c1.022,1.736,2.415,4.611,4.027,9.271c2.272,6.572,8.436,10.591,15.345,10.005
	c6.895-0.587,12.285-5.581,13.409-12.413l0.082-0.504C116.771,143.951,119.445,135.611,123.248,128.207z M108.4,120.578
	c-3.752,7.302-6.585,15.297-8.453,23.849c-3.509-8.236-8.875-16.463-17.505-16.463c-8.632,0-13.996,8.227-17.504,16.463
	c-1.866-8.544-4.7-16.544-8.454-23.848c-1.33-2.589-2.033-5.611-2.033-8.741c0-8.415,5.235-15.524,11.431-15.524
	c1.015,0,2.021,0.187,2.989,0.558c8.751,3.341,18.388,3.341,27.14,0c0.968-0.371,1.974-0.558,2.989-0.558
	c6.197,0,11.431,7.109,11.431,15.524C110.432,114.967,109.73,117.99,108.4,120.578z"/>
<path d="M490.57,359.01h-13.355v-11.408c0-4.61-3.737-8.347-8.347-8.347h-39.509c-4.61,0-8.347,3.737-8.347,8.347v147.705h-2.782
	c-4.61,0-8.347,3.737-8.347,8.347c0,4.61,3.737,8.347,8.347,8.347h11.129c4.61,0,8.347-3.737,8.347-8.347v-21.943h0.773
	c13.075,0,23.711-10.636,23.711-23.711v-62.542h6.678c4.61,0,8.347-3.737,8.347-8.347v-11.408h13.355
	c4.61,0,8.347-3.737,8.347-8.347S495.18,359.01,490.57,359.01z M437.705,355.949h22.815v22.815h-6.678h-16.138V355.949z
	 M445.496,458c0,3.87-3.147,7.017-7.017,7.017h-0.773v-69.559h7.791V458z"/>
<path d="M41.004,422.726h83.409c4.61,0,8.347-3.737,8.347-8.347s-3.737-8.347-8.347-8.347H41.004
	c-13.227,0-23.989,10.761-23.989,23.989c0,19.297,15.699,34.996,34.996,34.996h72.402c4.61,0,8.347-3.737,8.347-8.347
	c0-4.61-3.737-8.347-8.347-8.347H52.011c-10.092,0-18.302-8.21-18.302-18.302C33.708,425.998,36.98,422.726,41.004,422.726z"/>
<g>
</g>
<g>
</g>
<g>
</g>
<g>
</g>
<g>
</g>
<g>
</g>
<g>
</g>
<g>
</g>
<g>
</g>
<g>
</g>
<g>
</g>
<g>
</g>
<g>
</g>
<g>
</g>
<g>
</g>
</svg>
