<?xml version="1.0" encoding="iso-8859-1"?>
<!-- Generator: Adobe Illustrator 19.0.0, SVG Export Plug-In . SVG Version: 6.00 Build 0)  -->
<svg version="1.1" id="Layer_1" xmlns="http://www.w3.org/2000/svg" xmlns:xlink="http://www.w3.org/1999/xlink" x="0px" y="0px"
	 viewBox="0 0 512 512" style="enable-background:new 0 0 512 512;" xml:space="preserve">
<rect x="10.199" y="70.273" style="fill:#FFAD61;" width="491.602" height="371.455"/>
<rect x="46.711" y="189.705" style="fill:#F2F2F2;" width="418.575" height="252.022"/>
<g>
	<path style="fill:#72BEDE;" d="M276.398,103.012v54.056h188.89l0,0c0-29.854-24.202-54.056-54.056-54.056H276.398z"/>
	<path style="fill:#72BEDE;" d="M235.602,103.012H100.767c-29.854,0-54.056,24.202-54.056,54.056l0,0h188.89V103.012z"/>
</g>
<g>
	<path style="fill:#534741;" d="M501.801,451.927c5.632,0,10.199-4.567,10.199-10.199V70.273c0-5.632-4.567-10.199-10.199-10.199
		H10.199C4.566,60.073,0,64.641,0,70.273v371.455c0,5.632,4.566,10.199,10.199,10.199H501.801z M455.089,281.498H56.911V252.94
		H455.09L455.089,281.498L455.089,281.498z M56.911,301.896H455.09v28.558H56.911V301.896z M455.089,232.542H56.911v-32.637H455.09
		L455.089,232.542L455.089,232.542z M56.911,431.528v-31.72h325.56c5.632,0,10.199-4.567,10.199-10.199
		c0-5.632-4.567-10.199-10.199-10.199H56.911v-28.558H455.09v80.676H56.911z M491.602,431.528h-16.114V189.705
		c0-5.632-4.567-10.199-10.199-10.199H46.711c-5.633,0-10.199,4.567-10.199,10.199v241.823H20.398V80.472h471.203V431.528z"/>
	<path style="fill:#534741;" d="M276.398,167.267h188.89c5.632,0,10.199-4.567,10.199-10.199c0-35.43-28.825-64.255-64.255-64.255
		H276.398c-5.632,0-10.199,4.567-10.199,10.199v54.056C266.199,162.7,270.766,167.267,276.398,167.267z M286.598,113.211h124.635
		c20.673,0,38.051,14.377,42.659,33.657H286.598V113.211z"/>
	<path style="fill:#534741;" d="M46.711,167.267h188.89c5.633,0,10.199-4.567,10.199-10.199v-54.056
		c0-5.632-4.566-10.199-10.199-10.199H100.767c-35.43,0-64.255,28.825-64.255,64.255C36.512,162.7,41.078,167.267,46.711,167.267z
		 M100.767,113.211h124.635v33.657H58.108C62.717,127.588,80.094,113.211,100.767,113.211z"/>
	<path style="fill:#534741;" d="M426.327,379.41h-5.1c-5.632,0-10.199,4.567-10.199,10.199c0,5.632,4.567,10.199,10.199,10.199h5.1
		c5.632,0,10.199-4.567,10.199-10.199C436.526,383.978,431.959,379.41,426.327,379.41z"/>
</g>
<g>
</g>
<g>
</g>
<g>
</g>
<g>
</g>
<g>
</g>
<g>
</g>
<g>
</g>
<g>
</g>
<g>
</g>
<g>
</g>
<g>
</g>
<g>
</g>
<g>
</g>
<g>
</g>
<g>
</g>
</svg>
