<?xml version="1.0" encoding="iso-8859-1"?>
<!-- Generator: Adobe Illustrator 19.0.0, SVG Export Plug-In . SVG Version: 6.00 Build 0)  -->
<svg version="1.1" id="Layer_1" xmlns="http://www.w3.org/2000/svg" xmlns:xlink="http://www.w3.org/1999/xlink" x="0px" y="0px"
	 viewBox="0 0 441 441" style="enable-background:new 0 0 441 441;" xml:space="preserve">
<g>
	<path style="fill:#3E81C8;" d="M342.009,8H98.978C70.869,8,48,30.874,48,58.99v323.02C48,410.126,70.869,433,98.979,433h243.03
		c28.116,0,50.99-22.874,50.99-50.99V58.99C392.999,30.874,370.125,8,342.009,8z"/>
	<path style="fill:#EFEFEF;" d="M342.009,48H98.978c-6.053,0-10.979,4.931-10.979,10.99v323.02c0,6.06,4.926,10.99,10.979,10.99
		h243.03c6.06,0,10.99-4.931,10.99-10.99V58.99C352.999,52.931,348.068,48,342.009,48z"/>
	<polygon style="fill:#F8A805;" points="275.499,187.5 275.499,152.5 165.5,152.5 165.5,187.5 203,187.5 203,324 165.5,324 
		165.5,359 275.499,359 275.499,324 238,324 238,187.5 	"/>
	<path style="fill:#F8A805;" d="M220.5,78.5c-12.406,0-22.5,10.094-22.5,22.5s10.094,22.5,22.5,22.5S243,113.406,243,101
		S232.906,78.5,220.5,78.5z"/>
	<g>
		<path d="M342.009,0H98.978C66.46,0,40,26.46,40,58.99v323.02C40,414.54,66.46,441,98.979,441h243.03
			c32.53,0,58.99-26.46,58.99-58.99V58.99C400.999,26.46,374.539,0,342.009,0z M384.999,382.01c0,23.71-19.29,42.99-42.99,42.99
			H98.978c-23.699,0-42.979-19.28-42.979-42.99V58.99c0-23.71,19.28-42.99,42.979-42.99h243.03c23.701,0,42.991,19.28,42.991,42.99
			V382.01z"/>
		<path d="M342.009,40H98.978c-10.459,0-18.979,8.52-18.979,18.99v323.02c0,10.47,8.52,18.99,18.979,18.99h243.03
			c10.47,0,18.99-8.52,18.99-18.99V58.99C360.999,48.52,352.478,40,342.009,40z M344.999,382.01c0,1.65-1.34,2.99-2.99,2.99H98.978
			c-1.64,0-2.979-1.34-2.979-2.99V58.99c0-1.65,1.34-2.99,2.979-2.99h243.03c1.65,0,2.99,1.34,2.99,2.99v323.02L344.999,382.01
			L344.999,382.01z"/>
		<path d="M275.499,195.5c4.42,0,8-3.58,8-8v-35c0-4.42-3.58-8-8-8h-110c-4.42,0-8,3.58-8,8v35c0,4.42,3.58,8,8,8h29.5V316h-29.5
			c-4.42,0-8,3.58-8,8v35c0,4.42,3.58,8,8,8h110c4.42,0,8-3.58,8-8v-35c0-4.42-3.58-8-8-8h-29.5V195.5H275.499z M238,332h29.5v19
			h-94v-19H203c4.42,0,8-3.58,8-8V187.5c0-4.42-3.58-8-8-8h-29.5v-19h94v19H238c-4.42,0-8,3.58-8,8V324
			C230,328.42,233.58,332,238,332z"/>
		<path d="M220.5,70.5c-16.82,0-30.5,13.68-30.5,30.5s13.68,30.5,30.5,30.5S251,117.82,251,101S237.32,70.5,220.5,70.5z
			 M220.5,115.5c-8,0-14.5-6.5-14.5-14.5s6.5-14.5,14.5-14.5c7.99,0,14.5,6.5,14.5,14.5S228.49,115.5,220.5,115.5z"/>
	</g>
</g>
<g>
</g>
<g>
</g>
<g>
</g>
<g>
</g>
<g>
</g>
<g>
</g>
<g>
</g>
<g>
</g>
<g>
</g>
<g>
</g>
<g>
</g>
<g>
</g>
<g>
</g>
<g>
</g>
<g>
</g>
</svg>
